<svg xmlns="http://www.w3.org/2000/svg" viewBox="0 0 1200 750" width="1200" height="750" font-family="'Space Grotesk', 'Helvetica Neue', Arial, sans-serif">
  <defs>
    <linearGradient id="cbg" x1="0" y1="0" x2="1" y2="1"><stop offset="0" stop-color="#0a0f14"/><stop offset="1" stop-color="#05080b"/></linearGradient>
    <radialGradient id="cglow" cx="0.5" cy="0.5" r="0.5"><stop offset="0" stop-color="#c4a265" stop-opacity="0.30"/><stop offset="1" stop-color="#c4a265" stop-opacity="0"/></radialGradient>
    <radialGradient id="cglowb" cx="0.5" cy="0.5" r="0.5"><stop offset="0" stop-color="#78c8ff" stop-opacity="0.22"/><stop offset="1" stop-color="#78c8ff" stop-opacity="0"/></radialGradient>
    <radialGradient id="cvig" cx="0.5" cy="0.5" r="0.75"><stop offset="0.55" stop-color="#000" stop-opacity="0"/><stop offset="1" stop-color="#000" stop-opacity="0.55"/></radialGradient>
    <linearGradient id="cscrim" x1="0" y1="0" x2="0" y2="1"><stop offset="0" stop-color="#06090d" stop-opacity="0"/><stop offset="1" stop-color="#06090d" stop-opacity="0.82"/></linearGradient>
  </defs>
  <rect width="1200" height="750" fill="url(#cbg)"/>
  <ellipse cx="450" cy="300" rx="360" ry="300" fill="url(#cglowb)"/>
  <ellipse cx="792" cy="472" rx="380" ry="320" fill="url(#cglow)"/>
  <ellipse cx="1060" cy="250" rx="260" ry="240" fill="url(#cglow)"/>
  <g fill="none" stroke-linecap="round">
    <path d="M-45.0 60.0C-39.1 58.6 -27.7 55.8 -9.7 51.3C8.3 46.9 38.1 39.3 63.0 33.2C87.8 27.0 113.1 20.5 139.5 14.4C165.8 8.2 192.8 1.8 220.9 -3.7C249.1 -9.2 278.3 -14.7 308.2 -18.5C338.0 -22.3 369.3 -25.5 400.1 -26.7C431.0 -27.9 462.9 -27.4 493.2 -25.6C523.6 -23.8 553.9 -19.9 582.4 -15.9C611.0 -12.0 638.3 -6.4 664.4 -1.8C690.6 2.8 715.1 7.9 739.3 11.8C763.5 15.6 786.4 18.9 809.8 21.2C833.3 23.4 856.0 24.4 880.2 25.1C904.3 25.7 928.7 24.9 954.6 25.1C980.4 25.3 1007.8 24.8 1035.3 26.4C1062.9 28.0 1092.0 30.6 1119.7 34.7C1147.3 38.9 1187.7 48.4 1201.3 51.1" stroke="#7cc6f7" stroke-width="1.19" opacity="0.29"/>
    <path d="M-45.0 86.0C-39.2 84.5 -27.9 81.7 -10.1 77.0C7.7 72.3 37.3 64.4 61.9 57.9C86.6 51.3 111.7 44.4 137.9 37.8C164.2 31.1 191.1 24.1 219.4 18.1C247.6 12.0 277.1 5.8 307.4 1.6C337.6 -2.7 369.6 -6.3 401.0 -7.5C432.5 -8.8 465.2 -8.1 496.1 -5.9C527.0 -3.7 557.7 1.1 586.4 5.7C615.0 10.4 642.2 16.9 668.0 22.2C693.8 27.5 717.6 33.3 741.2 37.6C764.7 41.8 786.6 45.4 809.3 47.5C832.0 49.7 853.8 50.4 877.3 50.6C900.9 50.8 924.8 49.1 950.5 48.6C976.2 48.1 1003.9 46.5 1031.8 47.7C1059.6 48.9 1089.7 51.4 1117.8 55.8C1145.9 60.1 1186.6 70.8 1200.4 73.9" stroke="#7fc5f2" stroke-width="1.25" opacity="0.31"/>
    <path d="M-45.0 112.0C-39.2 110.4 -28.1 107.5 -10.5 102.6C7.1 97.7 36.3 89.5 60.7 82.6C85.1 75.7 109.9 68.3 136.0 61.2C162.1 54.0 188.9 46.4 217.2 39.7C245.5 33.1 275.1 26.1 305.8 21.3C336.5 16.5 369.1 12.4 401.2 11.0C433.3 9.7 467.0 10.6 498.4 13.2C529.9 15.9 561.1 21.6 589.8 27.1C618.5 32.6 645.4 40.2 670.7 46.3C696.1 52.4 719.1 59.1 741.8 63.8C764.4 68.5 785.2 72.4 806.8 74.6C828.5 76.8 849.0 77.2 871.6 76.9C894.2 76.5 917.1 73.9 942.3 72.5C967.6 71.1 995.1 68.1 1023.2 68.6C1051.2 69.1 1082.1 71.0 1110.7 75.3C1139.2 79.7 1180.5 91.6 1194.5 94.8" stroke="#82c3ea" stroke-width="1.33" opacity="0.33"/>
    <path d="M-45.0 138.0C-39.3 136.4 -28.3 133.4 -10.9 128.3C6.5 123.2 35.2 114.7 59.3 107.4C83.4 100.1 107.9 92.3 133.7 84.7C159.5 77.0 186.1 68.7 214.3 61.3C242.6 54.0 272.3 46.1 303.4 40.8C334.4 35.4 367.7 30.5 400.5 29.0C433.3 27.5 468.0 28.5 500.0 31.7C531.9 34.9 563.7 41.7 592.4 48.1C621.2 54.6 647.7 63.5 672.5 70.5C697.2 77.6 719.2 85.2 740.7 90.5C762.3 95.9 781.6 100.3 801.9 102.6C822.1 105.0 841.0 105.4 862.1 104.6C883.2 103.8 904.3 100.4 928.4 97.9C952.5 95.4 978.9 90.6 1006.7 89.8C1034.4 89.0 1065.8 89.2 1094.8 93.0C1123.7 96.8 1153.6 104.9 1180.4 112.6C1207.3 120.3 1243.1 134.9 1255.7 139.4" stroke="#87c1e1" stroke-width="1.43" opacity="0.37"/>
    <path d="M-45.0 164.0C-39.4 162.3 -28.6 159.3 -11.4 154.0C5.7 148.7 34.0 139.9 57.7 132.3C81.5 124.7 105.5 116.5 131.0 108.3C156.5 100.1 182.6 91.1 210.8 83.1C238.9 75.0 268.5 66.1 299.8 60.0C331.1 53.9 365.1 48.1 398.6 46.4C432.0 44.6 467.8 45.8 500.3 49.5C532.9 53.2 565.2 61.1 594.0 68.7C622.7 76.2 648.8 86.5 672.8 94.7C696.7 102.9 717.5 111.6 737.7 117.9C757.9 124.2 775.5 129.4 793.8 132.3C812.1 135.1 828.9 136.0 847.7 135.1C866.4 134.2 884.9 130.5 906.6 127.0C928.3 123.4 951.9 116.7 978.1 113.8C1004.3 110.9 1034.8 107.5 1063.8 109.4C1092.8 111.3 1124.4 117.8 1152.0 125.1C1179.6 132.5 1216.6 148.8 1229.5 153.6" stroke="#8dbed5" stroke-width="1.56" opacity="0.41"/>
    <path d="M-45.0 190.0C-39.5 188.3 -28.8 185.2 -12.0 179.8C4.8 174.4 32.6 165.3 55.9 157.4C79.2 149.4 102.7 140.9 127.8 132.2C152.9 123.5 178.5 113.8 206.3 105.0C234.2 96.2 263.6 86.2 295.0 79.3C326.5 72.3 361.0 65.4 395.0 63.3C429.1 61.2 466.0 62.2 499.2 66.4C532.4 70.7 565.3 79.8 594.0 88.5C622.7 97.2 648.3 109.1 671.4 118.7C694.4 128.3 713.9 138.5 732.4 146.0C750.9 153.6 766.4 160.1 782.3 164.1C798.2 168.1 812.1 170.2 827.6 170.1C843.0 170.0 857.6 167.4 875.1 163.6C892.6 159.8 910.7 152.8 932.7 147.3C954.6 141.9 979.9 133.4 1007.0 130.8C1034.0 128.3 1066.2 127.6 1094.8 131.7C1123.5 135.9 1153.0 146.4 1178.8 155.7C1204.5 165.0 1237.6 182.3 1249.4 187.6" stroke="#93bbc8" stroke-width="1.70" opacity="0.45"/>
    <path d="M-45.0 216.0C-39.6 214.3 -29.1 211.2 -12.6 205.6C3.9 200.1 31.2 190.8 54.0 182.6C76.8 174.4 99.7 165.6 124.2 156.4C148.8 147.2 173.7 137.0 201.1 127.4C228.5 117.7 257.4 106.7 288.8 98.8C320.2 90.9 355.0 82.6 389.6 79.8C424.1 77.1 462.3 77.8 496.1 82.4C529.8 87.0 563.5 97.4 592.2 107.4C620.8 117.4 645.9 131.0 668.0 142.3C690.0 153.5 708.0 165.4 724.5 174.8C741.0 184.2 754.3 192.6 767.1 198.7C780.0 204.9 790.6 209.2 801.7 211.6C812.8 214.0 822.5 214.4 833.7 212.9C844.9 211.5 855.6 208.0 868.8 203.0C882.1 198.0 895.7 190.4 913.4 183.1C931.0 175.8 951.1 165.2 974.7 159.3C998.4 153.3 1027.7 146.8 1055.5 147.4C1083.2 148.0 1114.7 154.8 1141.1 162.9C1167.6 170.9 1202.0 190.3 1214.2 195.8" stroke="#9ab7b9" stroke-width="1.87" opacity="0.51"/>
    <path d="M-45.0 242.0C-39.7 240.3 -29.3 237.2 -13.2 231.5C3.0 225.9 29.6 216.5 51.9 208.1C74.1 199.7 96.4 190.7 120.3 181.0C144.2 171.4 168.3 160.7 195.1 150.3C221.8 139.9 249.9 127.8 281.0 118.8C312.1 109.7 346.9 99.8 381.8 96.2C416.7 92.7 456.0 92.6 490.4 97.4C524.8 102.2 559.4 113.7 588.0 124.9C616.7 136.2 641.4 151.8 662.4 164.9C683.4 178.1 699.8 192.1 714.1 204.0C728.5 215.9 739.1 226.8 748.6 236.4C758.1 245.9 765.0 254.0 771.2 261.2C777.4 268.4 781.9 274.2 786.1 279.5C790.2 284.7 793.2 288.9 796.1 292.7C798.9 296.5 801.1 299.5 803.1 302.2C805.2 304.8 806.8 306.9 808.4 308.7C809.9 310.5 811.2 311.8 812.5 312.9C813.8 314.0 814.9 314.7 816.1 315.2C817.2 315.6 818.2 315.8 819.4 315.7C820.5 315.6 821.5 315.2 822.7 314.5C823.9 313.9 825.1 312.9 826.5 311.6C827.8 310.3 829.3 308.7 831.0 306.7C832.7 304.6 834.5 302.3 836.8 299.4C839.0 296.5 841.5 293.2 844.7 289.1C847.9 285.1 851.3 280.5 856.1 275.0C860.8 269.5 865.9 263.3 873.1 256.0C880.3 248.7 888.1 240.2 899.3 231.1C910.5 221.9 923.1 210.7 940.3 201.2C957.5 191.7 978.7 179.5 1002.4 174.1C1026.2 168.7 1056.4 165.4 1082.9 168.6C1109.4 171.7 1137.6 182.9 1161.3 192.9C1185.0 202.9 1214.7 222.8 1225.3 228.7" stroke="#a2b3ab" stroke-width="2.03" opacity="0.56"/>
    <path d="M-45.0 268.0C-39.8 266.2 -29.6 263.2 -13.8 257.5C2.0 251.8 28.0 242.4 49.7 233.9C71.3 225.3 93.0 216.2 116.1 206.2C139.2 196.2 162.3 185.1 188.3 174.1C214.2 163.0 241.1 149.8 271.6 139.6C302.1 129.4 336.3 117.6 371.3 112.8C406.3 108.1 446.7 106.7 481.7 111.3C516.7 115.9 552.4 128.2 581.2 140.6C610.0 153.1 634.5 170.6 654.5 186.0C674.6 201.3 689.3 217.7 701.5 232.7C713.8 247.7 721.6 262.0 728.0 276.1C734.4 290.2 737.4 303.5 740.1 317.3C742.8 331.2 742.9 345.0 744.3 359.1C745.8 373.1 745.8 388.1 748.8 401.7C751.7 415.3 755.5 429.8 762.1 440.7C768.7 451.7 778.3 461.8 788.5 467.5C798.7 473.2 812.0 475.7 823.3 474.9C834.7 474.1 847.1 469.0 856.7 462.7C866.3 456.3 874.6 446.4 880.8 436.6C887.0 426.7 890.8 415.0 893.8 403.6C896.8 392.2 897.4 380.0 898.6 368.2C899.8 356.4 899.5 344.5 900.9 332.6C902.3 320.8 903.3 309.1 907.1 297.0C910.9 285.0 915.3 272.7 923.7 260.4C932.0 248.2 942.3 234.5 957.3 223.4C972.4 212.3 992.1 199.4 1014.0 193.8C1035.9 188.2 1064.4 186.0 1088.6 189.8C1112.9 193.5 1138.1 205.6 1159.5 216.1C1180.9 226.6 1207.2 246.6 1216.7 252.7" stroke="#b3ab88" stroke-width="2.42" opacity="0.69"/>
    <path d="M-45.0 294.0C-39.9 292.3 -29.9 289.2 -14.5 283.5C0.9 277.8 26.4 268.5 47.4 259.9C68.4 251.3 89.4 242.1 111.6 231.9C133.9 221.7 156.1 210.5 180.9 198.8C205.8 187.1 231.2 173.2 260.8 161.8C290.3 150.3 323.3 136.4 358.1 130.2C392.8 123.9 433.8 120.3 469.3 124.2C504.9 128.2 542.1 140.6 571.3 154.0C600.5 167.4 625.0 186.9 644.3 204.5C663.6 222.1 676.8 241.1 687.2 259.5C697.7 278.0 702.5 296.2 707.0 315.1C711.5 334.0 711.3 353.5 714.0 372.9C716.7 392.2 717.4 413.3 723.3 431.2C729.2 449.2 737.6 467.8 749.5 480.6C761.4 493.4 778.5 503.6 794.8 508.0C811.0 512.5 830.9 511.3 846.9 507.1C863.0 502.9 878.9 493.0 891.1 482.8C903.3 472.7 912.8 459.1 920.0 446.1C927.2 433.1 931.1 418.7 934.3 404.7C937.5 390.7 937.6 376.3 939.0 362.0C940.3 347.7 939.8 333.2 942.4 318.9C945.1 304.6 947.6 289.8 954.8 276.1C962.0 262.4 971.6 247.4 985.7 236.7C999.8 225.9 1019.6 215.0 1039.6 211.6C1059.5 208.2 1084.9 210.6 1105.6 216.4C1126.4 222.2 1146.4 235.7 1164.1 246.6C1181.7 257.5 1196.3 271.1 1211.7 282.0C1227.1 292.8 1248.9 306.8 1256.3 311.7" stroke="#b1ac8c" stroke-width="2.37" opacity="0.67"/>
    <path d="M-45.0 320.0C-40.0 318.3 -30.1 315.3 -15.1 309.6C-0.1 304.0 24.8 294.7 45.2 286.2C65.5 277.6 85.8 268.5 107.1 258.3C128.4 248.0 149.6 236.7 173.2 224.6C196.8 212.5 220.6 198.2 248.7 185.6C276.9 172.9 307.9 157.1 341.9 149.0C376.0 140.8 416.8 134.0 452.8 136.6C488.8 139.3 527.9 150.9 557.7 164.7C587.5 178.4 612.7 199.7 631.7 219.3C650.7 239.0 662.5 260.8 671.7 282.5C681.0 304.1 683.3 326.6 687.2 349.3C691.2 372.0 690.3 396.5 695.4 418.6C700.5 440.7 706.4 464.2 718.1 481.9C729.7 499.7 747.0 515.9 765.3 525.2C783.6 534.5 807.4 538.3 827.7 537.6C847.9 536.8 869.6 529.1 886.9 520.6C904.1 512.0 919.2 498.6 931.1 486.1C943.0 473.6 951.5 459.1 958.3 445.3C965.0 431.5 968.4 417.4 971.3 403.4C974.1 389.5 974.1 375.5 975.3 361.5C976.6 347.4 975.9 333.1 978.7 319.3C981.4 305.6 984.3 291.0 991.8 278.9C999.2 266.9 1009.9 254.1 1023.2 246.9C1036.6 239.8 1055.1 235.1 1071.7 235.9C1088.3 236.7 1107.1 243.9 1122.7 251.7C1138.3 259.4 1152.1 272.0 1165.4 282.3C1178.8 292.6 1190.2 303.9 1202.9 313.5C1215.5 323.1 1234.8 335.3 1241.2 339.7" stroke="#b5aa84" stroke-width="2.46" opacity="0.70"/>
    <path d="M-45.0 346.0C-40.1 344.3 -30.4 341.3 -15.7 335.8C-1.1 330.3 23.2 321.2 42.9 312.8C62.7 304.3 82.2 295.4 102.6 285.2C123.0 275.0 143.1 263.9 165.4 251.6C187.6 239.3 209.6 224.9 236.0 211.4C262.3 197.8 290.7 180.4 323.3 170.1C355.9 159.8 395.6 149.0 431.7 149.4C467.8 149.8 508.9 159.1 539.7 172.4C570.5 185.8 597.2 208.3 616.5 229.5C635.8 250.7 646.8 275.3 655.5 299.5C664.3 323.8 664.8 349.8 669.0 375.0C673.2 400.1 673.3 427.2 680.9 450.5C688.4 473.7 699.0 497.2 714.5 514.3C730.0 531.4 752.3 545.6 774.0 553.0C795.7 560.4 822.4 561.4 844.9 558.7C867.3 556.0 890.0 546.5 908.5 536.9C927.0 527.4 942.8 513.8 955.9 501.4C969.0 489.0 978.9 475.4 987.0 462.7C995.2 450.1 1000.6 437.5 1004.9 425.5C1009.2 413.5 1011.2 401.9 1013.1 390.6C1014.9 379.2 1014.9 368.1 1015.9 357.2C1016.9 346.3 1016.9 335.4 1019.1 325.3C1021.3 315.2 1024.1 304.9 1029.3 296.9C1034.5 288.9 1042.0 281.4 1050.5 277.4C1059.0 273.5 1070.2 271.9 1080.4 273.2C1090.6 274.5 1101.7 279.5 1111.6 285.1C1121.6 290.7 1130.7 299.1 1139.8 306.7C1148.9 314.3 1157.1 323.0 1166.3 330.8C1175.4 338.5 1184.5 346.2 1194.8 353.3C1205.0 360.3 1222.4 369.7 1227.9 373.0" stroke="#b4aa86" stroke-width="2.44" opacity="0.69"/>
    <path d="M-45.0 372.0C-40.2 370.3 -30.6 367.5 -16.3 362.1C-2.0 356.7 21.7 347.8 40.8 339.6C59.9 331.4 78.8 322.8 98.3 312.8C117.8 302.8 136.9 292.1 157.7 279.9C178.5 267.6 198.8 253.6 223.0 239.3C247.2 225.1 272.5 207.0 303.0 194.4C333.4 181.9 370.4 166.9 406.0 164.1C441.5 161.3 484.4 166.2 516.5 177.9C548.5 189.5 577.9 212.3 598.2 234.2C618.6 256.0 629.8 283.0 638.7 309.1C647.6 335.1 647.1 363.7 651.6 390.4C656.2 417.0 657.1 445.2 665.9 469.1C674.8 493.0 687.5 516.5 704.8 533.8C722.1 551.1 746.3 565.2 769.8 572.8C793.3 580.4 821.7 581.6 845.9 579.3C870.1 577.1 894.5 568.1 915.0 559.2C935.4 550.4 953.1 537.5 968.4 526.2C983.7 514.8 995.9 502.3 1006.7 491.2C1017.5 480.0 1025.8 469.2 1033.3 459.4C1040.7 449.7 1046.3 440.7 1051.4 432.7C1056.6 424.6 1060.4 417.5 1064.1 411.2C1067.8 404.8 1070.7 399.3 1073.7 394.6C1076.7 389.8 1079.2 385.8 1082.0 382.5C1084.7 379.2 1087.4 376.7 1090.3 374.7C1093.2 372.8 1096.2 371.6 1099.6 371.0C1103.0 370.4 1106.5 370.4 1110.6 371.0C1114.6 371.6 1118.9 372.9 1123.8 374.5C1128.8 376.2 1134.1 378.5 1140.3 381.1C1146.4 383.7 1153.1 386.8 1160.9 390.0C1168.6 393.3 1177.1 396.9 1186.6 400.6C1196.2 404.2 1206.7 408.2 1218.1 412.0C1229.6 415.8 1249.2 421.5 1255.4 423.5" stroke="#a2b3a9" stroke-width="2.05" opacity="0.57"/>
    <path d="M-45.0 398.0C-40.3 396.4 -30.9 393.6 -16.9 388.4C-2.9 383.2 20.3 374.6 38.9 366.7C57.4 358.8 75.7 350.5 94.3 340.9C112.9 331.3 131.1 321.1 150.5 309.2C169.9 297.3 188.6 283.9 210.5 269.5C232.5 255.1 254.4 237.1 282.0 222.6C309.6 208.2 342.1 189.4 376.2 182.7C410.3 176.0 453.5 174.1 486.7 182.5C520.0 190.9 553.4 211.8 575.8 233.1C598.1 254.4 611.0 283.2 620.8 310.2C630.5 337.2 629.8 367.4 634.4 395.1C639.0 422.7 639.6 451.4 648.3 476.0C657.1 500.6 669.5 524.4 686.8 542.8C704.1 561.2 728.0 577.0 752.0 586.4C776.0 595.8 805.3 599.7 831.0 599.5C856.7 599.3 883.4 592.5 906.1 585.4C928.9 578.2 949.3 566.7 967.4 556.7C985.4 546.6 1000.4 535.1 1014.2 525.1C1028.0 515.2 1039.4 505.4 1050.2 497.1C1061.1 488.7 1070.2 481.2 1079.3 475.0C1088.4 468.8 1096.4 463.7 1104.8 459.7C1113.2 455.7 1121.2 452.9 1129.8 450.9C1138.4 449.0 1147.1 448.1 1156.6 447.9C1166.1 447.7 1176.1 448.4 1186.9 449.5C1197.8 450.5 1215.9 453.5 1221.7 454.3" stroke="#a1b3ab" stroke-width="2.02" opacity="0.56"/>
    <path d="M-45.0 424.0C-40.4 422.5 -31.1 419.7 -17.4 414.8C-3.7 409.8 19.0 401.6 37.1 394.0C55.1 386.5 72.8 378.6 90.7 369.5C108.5 360.4 125.9 350.7 144.0 339.4C162.1 328.1 179.5 315.7 199.1 301.6C218.8 287.6 237.7 270.6 261.9 254.9C286.0 239.2 312.7 218.3 344.1 207.4C375.4 196.5 416.0 186.1 449.9 189.4C483.7 192.8 521.9 208.4 547.1 227.3C572.3 246.1 589.2 275.5 600.9 302.5C612.5 329.5 612.4 361.0 616.9 389.2C621.5 417.4 620.7 446.5 628.1 471.9C635.5 497.3 645.7 521.6 661.3 541.6C676.9 561.7 698.5 579.8 721.6 592.2C744.7 604.6 773.5 612.7 800.0 616.0C826.5 619.3 855.4 616.5 880.5 612.1C905.5 607.8 929.4 598.5 950.4 590.1C971.4 581.7 989.7 571.0 1006.6 562.0C1023.5 553.0 1037.8 543.6 1051.7 535.9C1065.6 528.1 1077.6 521.0 1089.7 515.2C1101.9 509.5 1112.9 504.8 1124.5 501.2C1136.0 497.6 1147.1 495.2 1158.9 493.6C1170.6 491.9 1182.5 491.3 1195.1 491.2C1207.7 491.1 1227.9 492.5 1234.5 492.8" stroke="#a7b1a1" stroke-width="2.14" opacity="0.60"/>
    <path d="M-45.0 450.0C-40.5 448.5 -31.3 445.9 -17.9 441.2C-4.4 436.4 17.9 428.7 35.5 421.5C53.0 414.4 70.3 406.9 87.5 398.4C104.6 389.9 121.4 380.9 138.3 370.4C155.3 359.9 171.6 348.6 189.2 335.4C206.8 322.1 223.4 306.9 243.9 290.9C264.5 275.0 285.4 254.3 312.5 239.8C339.6 225.3 373.9 207.1 406.7 203.8C439.5 200.4 481.0 205.9 509.3 219.7C537.7 233.5 561.6 260.9 576.6 286.5C591.5 312.0 594.1 344.3 599.1 372.7C604.1 401.2 601.5 430.8 606.8 457.0C612.1 483.1 618.5 507.8 630.9 529.5C643.3 551.2 660.8 571.4 681.2 587.2C701.7 602.9 727.9 616.0 753.7 624.0C779.5 631.9 809.4 634.9 836.1 634.8C862.9 634.7 890.2 629.1 914.3 623.4C938.4 617.7 960.5 608.4 980.7 600.5C1000.9 592.6 1018.5 583.5 1035.3 575.9C1052.1 568.3 1066.9 561.0 1081.5 555.0C1096.2 549.0 1109.5 544.0 1123.1 539.9C1136.8 535.9 1149.8 533.0 1163.3 530.8C1176.8 528.7 1190.2 527.6 1204.2 526.9C1218.2 526.3 1240.0 527.0 1247.2 527.0" stroke="#acae95" stroke-width="2.27" opacity="0.64"/>
    <path d="M-45.0 476.0C-40.5 474.6 -31.4 472.1 -18.2 467.6C-5.1 463.1 16.9 455.8 34.1 449.1C51.3 442.5 68.2 435.5 84.8 427.6C101.3 419.8 117.6 411.5 133.6 401.9C149.7 392.3 165.1 382.2 181.1 370.1C197.0 358.1 211.9 344.8 229.2 329.7C246.4 314.6 262.7 296.1 284.7 279.6C306.7 263.1 331.8 241.0 361.0 230.7C390.2 220.4 429.7 212.1 460.0 217.7C490.4 223.3 523.4 243.1 543.4 264.4C563.3 285.7 572.3 317.9 579.5 345.7C586.7 373.4 583.1 404.2 586.4 430.9C589.8 457.6 591.4 482.9 599.5 505.9C607.7 528.9 619.5 550.3 635.5 568.9C651.5 587.5 672.5 604.8 695.4 617.6C718.2 630.5 746.0 640.4 772.6 646.0C799.3 651.6 828.8 652.4 855.4 651.2C882.0 649.9 908.3 644.0 932.0 638.3C955.7 632.7 977.3 624.4 997.5 617.4C1017.6 610.4 1035.6 602.7 1052.9 596.3C1070.2 589.9 1085.9 584.0 1101.5 579.2C1117.1 574.3 1131.7 570.4 1146.6 567.3C1161.5 564.2 1176.0 562.1 1190.9 560.6C1205.7 559.1 1228.4 558.6 1235.9 558.2" stroke="#b2ab8a" stroke-width="2.39" opacity="0.68"/>
    <path d="M-45.0 502.0C-40.6 500.7 -31.6 498.3 -18.6 494.1C-5.6 489.9 16.1 483.0 33.0 476.8C49.8 470.6 66.4 464.2 82.6 457.0C98.7 449.8 114.5 442.3 129.9 433.7C145.2 425.1 160.1 416.1 174.8 405.5C189.4 394.9 203.3 383.5 218.0 370.0C232.7 356.6 246.1 341.2 263.1 325.0C280.1 308.7 296.8 287.8 319.9 272.4C343.0 257.0 372.5 237.4 401.6 232.7C430.6 228.0 469.0 231.4 494.1 244.1C519.3 256.9 540.4 284.3 552.7 309.1C565.0 333.8 564.7 365.8 567.9 392.6C571.1 419.4 567.9 446.1 571.7 470.0C575.5 494.0 580.6 515.8 590.7 536.3C600.7 556.7 614.7 575.9 632.0 592.7C649.3 609.4 671.1 625.1 694.4 636.7C717.8 648.4 745.4 657.6 772.0 662.9C798.7 668.1 827.8 669.2 854.3 668.4C880.9 667.6 907.3 662.7 931.3 657.9C955.3 653.2 977.5 646.0 998.3 639.9C1019.2 633.9 1038.0 627.1 1056.2 621.5C1074.5 615.9 1091.2 610.6 1107.8 606.4C1124.5 602.1 1140.2 598.6 1156.1 595.8C1172.0 593.1 1187.5 591.2 1203.3 589.8C1219.1 588.4 1243.0 587.9 1251.0 587.5" stroke="#b7a980" stroke-width="2.50" opacity="0.71"/>
    <path d="M-45.0 528.0C-40.6 526.8 -31.7 524.5 -18.8 520.6C-6.0 516.7 15.5 510.2 32.1 504.5C48.7 498.8 65.0 492.9 80.9 486.4C96.7 479.9 112.1 473.1 127.0 465.6C141.9 458.0 156.3 450.1 170.2 440.9C184.1 431.8 197.2 422.2 210.3 410.8C223.3 399.5 235.2 387.1 248.5 372.9C261.7 358.6 273.5 341.9 289.7 325.4C305.9 308.8 322.9 287.2 345.7 273.7C368.4 260.2 399.3 244.9 426.1 244.5C452.8 244.0 486.1 254.8 506.1 270.9C526.0 287.1 538.2 316.5 545.7 341.3C553.1 366.2 549.4 395.3 550.8 419.9C552.2 444.5 550.2 467.5 554.0 488.9C557.7 510.3 563.5 529.8 573.4 548.5C583.2 567.2 596.5 585.0 612.9 601.0C629.2 617.0 649.5 632.3 671.6 644.5C693.7 656.6 719.7 667.1 745.6 673.9C771.5 680.8 800.1 684.3 826.8 685.5C853.5 686.7 880.8 684.1 905.8 681.0C930.8 678.0 954.6 672.2 976.8 667.2C999.0 662.2 1019.5 656.1 1039.1 650.9C1058.8 645.8 1076.8 640.7 1094.7 636.5C1112.6 632.3 1129.4 628.6 1146.2 625.7C1163.1 622.8 1179.4 620.6 1195.9 619.0C1212.5 617.3 1237.2 616.3 1245.4 615.8" stroke="#bca676" stroke-width="2.62" opacity="0.75"/>
    <path d="M-45.0 554.0C-40.7 552.8 -31.8 550.7 -19.1 547.1C-6.3 543.5 15.0 537.5 31.4 532.3C47.8 527.0 64.0 521.6 79.6 515.8C95.2 510.0 110.5 503.9 125.1 497.3C139.7 490.7 153.8 483.8 167.2 476.1C180.7 468.4 193.5 460.4 205.6 451.2C217.7 442.0 229.0 432.2 240.1 420.8C251.2 409.4 261.0 397.0 272.2 382.9C283.3 368.8 293.1 352.3 307.2 336.3C321.3 320.3 336.4 299.7 356.6 287.1C376.8 274.5 404.8 260.8 428.3 260.8C451.9 260.7 481.0 271.5 497.9 286.8C514.9 302.1 524.4 329.6 530.0 352.4C535.6 375.3 531.3 401.5 531.5 423.8C531.7 446.0 529.0 466.4 531.1 485.8C533.2 505.2 536.9 522.7 544.1 540.0C551.3 557.3 561.3 573.9 574.3 589.6C587.2 605.3 603.3 620.9 621.9 634.5C640.5 648.1 662.4 661.1 685.7 671.1C708.9 681.2 735.4 689.5 761.4 694.7C787.4 700.0 815.4 702.2 841.6 702.7C867.8 703.2 894.2 700.5 918.6 697.6C943.1 694.7 966.3 689.7 988.3 685.3C1010.3 680.9 1030.7 675.7 1050.5 671.4C1070.2 667.0 1088.7 662.7 1106.9 659.2C1125.1 655.7 1142.5 652.7 1159.9 650.3C1177.3 647.9 1202.8 645.7 1211.3 644.8" stroke="#c0a46d" stroke-width="2.71" opacity="0.78"/>
    <path d="M-45.0 580.0C-40.7 578.9 -31.9 576.9 -19.2 573.6C-6.6 570.2 14.6 564.7 30.9 559.9C47.2 555.2 63.3 550.3 78.8 545.1C94.3 539.9 109.4 534.6 123.9 528.9C138.3 523.2 152.3 517.3 165.6 510.9C178.8 504.5 191.5 497.9 203.3 490.6C215.2 483.3 226.2 475.7 236.5 467.2C246.8 458.6 256.1 449.6 265.1 439.4C274.0 429.1 281.7 418.0 290.1 405.5C298.5 393.0 305.6 378.8 315.7 364.3C325.7 349.8 335.7 331.8 350.4 318.4C365.2 305.0 384.7 288.8 404.1 283.8C423.5 278.8 449.8 279.7 466.7 288.3C483.7 297.0 498.2 317.4 505.8 335.7C513.3 354.1 512.0 378.4 512.1 398.3C512.2 418.2 507.4 437.5 506.5 455.1C505.6 472.8 504.7 488.5 506.8 504.1C509.0 519.8 513.0 534.3 519.6 549.1C526.2 563.8 535.1 578.3 546.6 592.4C558.0 606.6 572.0 620.9 588.3 634.0C604.6 647.2 623.7 660.4 644.7 671.4C665.6 682.4 689.4 692.7 713.8 700.2C738.2 707.7 765.0 713.2 790.9 716.5C816.9 719.7 844.0 720.2 869.4 719.6C894.8 719.0 919.8 716.0 943.4 713.0C966.9 710.0 989.2 705.6 1010.6 701.8C1032.0 698.0 1052.0 693.7 1071.6 690.1C1091.1 686.5 1109.6 683.1 1128.0 680.4C1146.4 677.6 1164.1 675.3 1181.8 673.5C1199.6 671.7 1225.7 670.2 1234.5 669.5" stroke="#c3a368" stroke-width="2.77" opacity="0.80"/>
    <path d="M-45.0 606.0C-40.7 605.0 -31.9 603.1 -19.3 600.1C-6.7 597.0 14.3 591.9 30.6 587.6C46.9 583.3 62.9 578.9 78.3 574.3C93.8 569.7 108.9 565.0 123.3 560.1C137.8 555.2 151.8 550.2 165.1 545.0C178.3 539.8 191.1 534.4 202.9 528.7C214.8 523.1 226.0 517.3 236.4 511.2C246.7 505.1 256.2 498.7 264.8 492.0C273.4 485.2 281.1 478.2 288.1 470.6C295.1 462.9 301.1 454.9 306.8 446.0C312.5 437.1 317.1 427.7 322.3 417.2C327.5 406.7 331.8 395.0 338.1 383.0C344.4 371.0 350.6 356.8 360.2 345.1C369.8 333.4 382.1 319.5 395.7 312.9C409.2 306.2 428.0 302.0 441.6 305.2C455.3 308.4 469.7 319.8 477.5 332.0C485.3 344.2 487.6 362.9 488.5 378.4C489.4 393.8 485.2 410.4 483.0 424.8C480.7 439.1 476.9 452.1 475.2 464.6C473.6 477.2 472.4 488.4 473.0 499.9C473.7 511.5 475.6 522.4 479.4 533.8C483.1 545.3 488.3 556.7 495.5 568.4C502.8 580.2 511.6 592.3 522.7 604.4C533.7 616.5 546.6 629.1 561.6 641.0C576.7 653.0 594.0 665.3 613.1 676.1C632.3 687.0 653.9 697.7 676.6 706.2C699.3 714.7 724.4 722.1 749.4 727.1C774.3 732.2 800.9 735.2 826.4 736.7C851.8 738.2 877.7 737.3 902.1 735.9C926.4 734.5 950.1 731.3 972.7 728.4C995.3 725.6 1016.7 721.7 1037.4 718.5C1058.2 715.3 1077.9 711.9 1097.2 709.0C1116.6 706.2 1135.1 703.6 1153.6 701.5C1172.0 699.4 1198.9 697.4 1208.0 696.5" stroke="#c4a266" stroke-width="2.79" opacity="0.81"/>
    <path d="M-45.0 632.0C-40.7 631.1 -32.0 629.3 -19.4 626.5C-6.8 623.7 14.2 619.0 30.5 615.2C46.7 611.3 62.7 607.3 78.2 603.3C93.7 599.3 108.8 595.2 123.3 591.0C137.8 586.9 151.9 582.6 165.4 578.4C178.8 574.2 191.7 569.9 203.9 565.6C216.1 561.3 227.7 557.0 238.4 552.8C249.2 548.5 259.3 544.3 268.5 540.2C277.8 536.1 286.3 532.0 294.0 528.1C301.7 524.2 308.7 520.4 314.9 516.8C321.2 513.2 326.7 509.7 331.7 506.4C336.6 503.1 340.8 499.9 344.6 496.9C348.4 493.8 351.6 491.0 354.5 488.1C357.3 485.3 359.7 482.7 361.7 479.9C363.8 477.2 365.4 474.6 366.9 471.9C368.3 469.2 369.4 466.5 370.4 463.6C371.4 460.7 372.0 457.8 372.6 454.5C373.2 451.3 373.6 447.9 374.0 444.1C374.4 440.3 374.6 436.2 375.0 431.7C375.4 427.1 375.6 422.1 376.3 416.7C377.0 411.3 377.7 405.3 379.2 399.0C380.7 392.8 382.4 385.8 385.3 379.4C388.3 373.0 392.0 365.8 396.7 360.5C401.4 355.2 407.7 349.9 413.6 347.6C419.5 345.3 426.9 344.8 432.3 346.6C437.7 348.5 443.1 353.4 446.1 358.8C449.2 364.3 450.6 372.3 450.8 379.4C451.0 386.5 449.3 394.5 447.5 401.5C445.7 408.4 442.7 415.1 440.1 421.0C437.6 426.9 434.5 432.2 432.0 437.0C429.4 441.8 426.9 445.9 424.7 449.9C422.5 453.8 420.6 457.2 418.9 460.6C417.3 464.0 415.9 467.0 414.9 470.1C413.8 473.2 413.0 476.1 412.5 479.1C412.0 482.2 411.8 485.2 411.9 488.5C412.0 491.8 412.3 495.1 413.1 498.8C413.8 502.6 414.9 506.4 416.4 510.8C418.0 515.3 419.9 519.9 422.5 525.2C425.1 530.5 428.1 536.2 432.1 542.6C436.0 549.0 440.5 555.9 446.2 563.5C451.9 571.1 458.3 579.4 466.2 588.2C474.1 597.0 483.0 606.5 493.6 616.4C504.3 626.2 516.1 636.7 529.9 647.2C543.7 657.6 559.1 668.6 576.3 678.9C593.5 689.1 612.6 699.7 633.3 708.7C653.9 717.8 676.6 726.5 699.9 733.2C723.3 739.9 748.5 745.4 773.3 749.1C798.2 752.7 824.1 754.5 848.9 755.1C873.7 755.8 898.5 754.6 922.2 753.1C945.8 751.6 968.7 748.8 990.8 746.2C1012.8 743.7 1033.8 740.5 1054.3 737.8C1074.8 735.1 1094.4 732.3 1113.8 730.1C1133.1 727.8 1151.8 725.7 1170.5 724.1C1189.1 722.4 1216.4 720.9 1225.6 720.2" stroke="#bda674" stroke-width="2.64" opacity="0.76"/>
    <path d="M-45.0 658.0C-40.7 657.2 -32.0 655.5 -19.4 653.0C-6.8 650.4 14.2 646.1 30.5 642.6C46.8 639.2 62.8 635.6 78.3 632.1C93.9 628.6 109.1 625.0 123.7 621.5C138.4 618.0 152.7 614.5 166.4 611.1C180.1 607.7 193.3 604.3 205.9 601.1C218.5 598.0 230.5 594.8 241.9 592.0C253.3 589.3 264.1 586.6 274.3 584.4C284.6 582.2 294.1 580.2 303.3 578.8C312.4 577.4 320.8 576.3 329.0 575.9C337.2 575.5 344.8 575.6 352.4 576.4C360.0 577.2 367.1 578.7 374.4 580.9C381.8 583.1 388.9 586.1 396.5 589.9C404.1 593.6 411.6 598.2 420.1 603.6C428.5 608.9 437.1 615.1 447.0 622.0C456.8 628.8 467.1 636.5 478.9 644.6C490.7 652.8 503.4 661.7 517.7 670.6C532.0 679.6 547.5 689.2 564.7 698.3C581.9 707.4 600.6 716.9 620.7 725.2C640.8 733.5 662.7 741.7 685.3 748.2C707.9 754.8 732.2 760.5 756.3 764.5C780.4 768.5 805.7 771.1 830.2 772.5C854.6 773.9 879.3 773.6 903.0 773.0C926.7 772.3 949.9 770.3 972.2 768.4C994.6 766.5 1016.1 763.9 1037.1 761.6C1058.1 759.3 1078.2 756.8 1098.1 754.8C1117.9 752.7 1137.1 750.7 1156.2 749.1C1175.3 747.5 1203.1 745.9 1212.5 745.2" stroke="#7cc6f7" stroke-width="1.19" opacity="0.29"/>
    <path d="M-45.0 684.0C-40.7 683.2 -32.0 681.7 -19.4 679.4C-6.8 677.0 14.3 673.1 30.6 670.0C47.0 666.9 63.0 663.8 78.7 660.7C94.3 657.6 109.7 654.6 124.5 651.6C139.4 648.7 153.9 645.8 167.9 643.1C181.9 640.4 195.4 637.7 208.5 635.5C221.6 633.2 234.1 631.0 246.3 629.3C258.4 627.6 270.0 626.1 281.2 625.2C292.5 624.3 303.2 623.7 313.7 623.9C324.2 624.0 334.3 624.7 344.4 626.1C354.5 627.5 364.3 629.6 374.4 632.4C384.5 635.3 394.4 638.9 405.0 643.2C415.6 647.6 426.3 652.8 437.9 658.6C449.6 664.4 461.6 671.0 474.8 678.1C488.1 685.1 502.1 692.9 517.4 700.7C532.8 708.6 549.2 717.1 567.0 725.0C584.8 733.0 603.9 741.4 624.2 748.7C644.5 756.0 666.3 763.2 688.7 768.9C711.1 774.7 735.0 779.8 758.7 783.4C782.4 787.1 807.0 789.5 831.0 790.9C855.0 792.3 879.2 792.3 902.5 791.9C925.9 791.5 948.8 790.0 971.0 788.6C993.3 787.1 1014.8 784.9 1035.8 783.1C1056.9 781.2 1077.2 779.1 1097.2 777.3C1117.2 775.6 1136.7 773.9 1156.0 772.5C1175.3 771.1 1203.5 769.7 1213.0 769.1" stroke="#7bc7f9" stroke-width="1.16" opacity="0.28"/>
    <path d="M260.0 70.0C267.7 68.2 282.0 63.2 306.2 59.3C330.5 55.4 372.0 48.0 405.5 46.6C439.0 45.2 474.8 46.9 507.2 51.0C539.6 55.1 571.5 63.3 599.9 71.1C628.3 78.8 654.0 89.1 677.6 97.3C701.2 105.5 721.7 114.1 741.6 120.2C761.6 126.3 779.0 131.2 797.2 133.9C815.4 136.5 832.0 137.1 850.8 136.0C869.7 134.9 888.2 130.9 910.1 127.2C932.0 123.6 955.9 116.7 982.3 113.9C1008.7 111.1 1039.6 108.1 1068.6 110.4C1097.6 112.6 1129.0 119.6 1156.4 127.2C1183.9 134.8 1220.4 151.1 1233.2 155.9" stroke="#8dbed5" stroke-width="1.57" opacity="0.41"/>
    <path d="M260.0 140.0C267.8 137.4 281.4 130.1 306.7 124.3C332.0 118.5 376.2 106.8 411.8 105.3C447.5 103.8 487.4 107.8 520.7 115.6C554.0 123.3 585.8 138.3 611.6 152.0C637.5 165.6 658.3 182.7 675.8 197.6C693.2 212.4 705.7 227.4 716.2 241.3C726.7 255.1 733.3 267.9 738.8 280.7C744.3 293.4 746.9 305.2 749.2 317.5C751.5 329.8 751.7 342.0 752.9 354.5C754.0 366.9 753.9 380.0 756.1 392.2C758.2 404.4 760.8 417.4 765.9 427.7C770.9 438.0 778.2 447.9 786.5 454.1C794.8 460.2 805.8 464.0 815.6 464.5C825.4 465.1 836.5 462.0 845.4 457.4C854.2 452.7 862.4 444.7 868.5 436.4C874.6 428.1 878.9 417.7 882.1 407.5C885.3 397.4 886.4 386.4 887.7 375.6C889.0 364.9 888.8 354.0 889.7 343.2C890.7 332.5 891.1 321.8 893.5 310.9C895.9 300.0 898.6 289.2 904.2 277.9C909.8 266.5 916.5 254.5 927.4 242.8C938.2 231.1 951.6 217.5 969.5 207.7C987.5 198.0 1011.1 187.2 1034.9 184.4C1058.8 181.6 1088.2 184.4 1112.5 190.8C1136.8 197.2 1160.0 211.5 1180.6 222.8C1201.3 234.1 1226.9 252.7 1236.2 258.6" stroke="#b3ab88" stroke-width="2.41" opacity="0.68"/>
    <path d="M260.0 210.0C267.2 206.4 278.6 196.7 303.1 188.2C327.6 179.7 371.1 161.6 406.9 159.0C442.7 156.5 485.4 161.4 517.7 172.8C550.0 184.2 579.7 206.4 600.6 227.6C621.5 248.8 633.6 274.9 643.1 300.2C652.6 325.5 652.9 353.1 657.4 379.3C661.9 405.5 662.0 433.6 669.9 457.6C677.9 481.6 689.0 505.6 705.2 523.4C721.4 541.1 744.4 556.0 767.1 564.2C789.8 572.3 817.7 574.2 841.4 572.3C865.1 570.4 889.3 561.6 909.4 552.7C929.4 543.8 946.9 530.7 961.7 519.0C976.5 507.3 988.1 494.3 998.2 482.6C1008.3 470.8 1015.7 459.2 1022.2 448.6C1028.6 437.9 1033.0 428.0 1036.8 418.7C1040.6 409.4 1042.9 400.9 1045.1 392.8C1047.2 384.8 1048.3 377.3 1049.7 370.4C1051.1 363.4 1052.0 356.9 1053.4 351.0C1054.9 345.1 1056.3 339.6 1058.5 335.0C1060.6 330.4 1063.2 326.3 1066.4 323.4C1069.5 320.5 1073.4 318.4 1077.5 317.5C1081.6 316.7 1086.4 317.0 1091.1 318.2C1095.9 319.4 1100.9 321.8 1106.0 324.8C1111.2 327.7 1116.3 331.7 1121.9 335.8C1127.4 339.9 1132.9 344.7 1139.2 349.5C1145.5 354.2 1152.0 359.4 1159.5 364.4C1167.1 369.4 1175.2 374.6 1184.4 379.5C1193.6 384.5 1203.8 389.5 1214.9 394.2C1226.0 398.9 1245.2 405.7 1251.3 408.0" stroke="#a7b1a0" stroke-width="2.15" opacity="0.60"/>
    <path d="M260.0 280.0C265.6 275.7 273.7 265.6 293.8 254.0C313.9 242.5 349.0 217.7 380.9 210.5C412.8 203.4 454.7 201.6 485.1 211.3C515.6 220.9 545.3 244.7 563.7 268.2C582.0 291.7 588.5 324.0 595.0 352.3C601.5 380.6 598.3 411.3 602.6 438.2C606.9 465.1 610.6 490.9 620.9 513.7C631.2 536.6 646.0 557.9 664.6 575.4C683.1 592.8 707.4 608.1 732.2 618.2C757.0 628.3 786.5 634.1 813.5 636.1C840.4 638.1 868.9 634.5 894.0 630.0C919.1 625.6 942.7 616.9 964.1 609.4C985.4 601.9 1004.2 592.6 1021.9 584.9C1039.6 577.1 1055.2 569.4 1070.4 563.0C1085.7 556.5 1099.4 550.9 1113.4 546.4C1127.4 541.9 1140.5 538.5 1154.2 535.9C1167.8 533.3 1181.2 531.8 1195.2 530.8C1209.1 529.8 1230.8 530.1 1237.9 529.9" stroke="#adae94" stroke-width="2.28" opacity="0.64"/>
    <path d="M260.0 350.0C263.7 345.9 269.0 338.1 282.0 325.3C295.1 312.5 315.4 287.2 338.3 273.1C361.2 258.9 392.0 242.2 419.5 240.5C447.0 238.8 482.1 247.7 503.6 263.0C525.1 278.3 539.8 307.5 548.5 332.5C557.2 357.5 554.2 387.6 556.0 412.9C557.9 438.3 555.6 462.3 559.4 484.4C563.2 506.6 569.0 526.8 579.0 545.9C589.0 565.1 602.6 583.3 619.4 599.5C636.2 615.7 657.0 631.1 679.6 643.0C702.2 655.0 728.8 665.0 754.9 671.3C781.1 677.6 810.0 680.3 836.6 680.8C863.3 681.3 890.3 678.0 915.0 674.3C939.7 670.7 963.0 664.5 984.8 659.2C1006.6 653.8 1026.5 647.5 1045.7 642.2C1065.0 637.0 1082.6 631.8 1100.1 627.6C1117.6 623.4 1134.1 619.9 1150.7 617.0C1167.3 614.2 1183.3 612.1 1199.7 610.5C1216.0 609.0 1240.5 608.2 1248.6 607.7" stroke="#baa778" stroke-width="2.59" opacity="0.74"/>
    <path d="M260.0 420.0C262.4 417.0 267.0 411.9 274.3 401.8C281.6 391.6 292.4 374.2 303.9 359.0C315.3 343.8 326.5 324.9 342.9 310.7C359.4 296.4 381.0 278.9 402.5 273.7C424.0 268.5 453.3 269.6 472.1 279.3C490.9 288.9 506.9 311.4 515.4 331.4C523.9 351.5 522.4 377.9 523.0 399.5C523.6 421.1 519.0 442.0 519.0 461.2C519.0 480.3 519.3 497.4 523.1 514.3C526.9 531.2 533.0 547.1 541.9 562.8C550.9 578.5 562.5 593.9 576.9 608.5C591.2 623.0 608.4 637.5 627.9 650.0C647.3 662.5 669.9 674.5 693.6 683.6C717.2 692.7 743.8 700.0 769.7 704.6C795.7 709.1 823.3 710.8 849.3 711.0C875.2 711.2 901.1 708.5 925.3 705.7C949.4 702.8 972.4 698.1 994.3 694.1C1016.1 690.0 1036.5 685.2 1056.3 681.2C1076.1 677.2 1094.6 673.3 1113.0 670.1C1131.4 666.9 1149.0 664.1 1166.6 662.0C1184.2 659.8 1210.0 657.8 1218.7 657.0" stroke="#c1a36b" stroke-width="2.74" opacity="0.79"/>
    <path d="M260.0 490.0C262.1 488.2 267.0 485.0 272.7 479.3C278.4 473.5 287.8 464.2 294.4 455.6C301.0 447.0 306.4 437.9 312.1 427.8C317.8 417.7 322.3 406.6 328.4 394.7C334.5 382.8 339.9 369.0 348.6 356.5C357.3 343.9 367.5 328.6 380.5 319.4C393.5 310.1 411.6 301.1 426.6 300.8C441.6 300.5 459.8 307.5 470.5 317.7C481.1 327.9 487.5 346.4 490.5 362.1C493.5 377.8 490.2 396.2 488.6 411.7C487.0 427.3 482.6 441.7 480.6 455.3C478.7 468.9 476.9 481.0 477.1 493.2C477.4 505.4 478.8 516.9 482.2 528.7C485.5 540.6 490.4 552.3 497.4 564.4C504.3 576.5 513.0 588.8 523.9 601.2C534.7 613.5 547.5 626.3 562.5 638.4C577.5 650.5 594.8 663.0 613.9 674.0C633.1 685.0 654.7 695.8 677.5 704.3C700.2 712.9 725.4 720.3 750.5 725.4C775.5 730.5 802.2 733.4 827.7 734.8C853.2 736.2 879.1 735.2 903.5 733.7C927.8 732.3 951.5 729.0 974.1 726.0C996.6 723.1 1018.0 719.2 1038.7 715.9C1059.4 712.6 1078.9 709.1 1098.2 706.3C1117.5 703.4 1136.0 700.8 1154.4 698.7C1172.8 696.6 1199.6 694.5 1208.7 693.7" stroke="#c4a265" stroke-width="2.80" opacity="0.81"/>
    <path d="M260.0 560.0C262.4 559.1 267.8 557.3 274.6 554.9C281.4 552.5 292.6 548.4 300.6 545.6C308.6 542.8 315.9 540.2 322.6 538.1C329.3 535.9 335.4 534.0 341.0 532.6C346.7 531.3 351.7 530.3 356.6 529.8C361.4 529.3 365.8 529.2 370.1 529.8C374.4 530.3 378.3 531.3 382.4 532.9C386.5 534.6 390.3 536.7 394.6 539.6C398.8 542.4 402.9 545.9 407.7 550.1C412.4 554.3 417.2 559.1 423.0 564.7C428.7 570.3 434.7 576.6 441.9 583.7C449.1 590.7 456.9 598.5 466.1 606.9C475.4 615.2 485.5 624.4 497.2 633.8C509.0 643.2 522.0 653.4 536.8 663.3C551.6 673.3 567.9 683.8 586.0 693.5C604.0 703.2 624.0 713.0 645.2 721.4C666.3 729.7 689.5 737.6 713.1 743.5C736.7 749.5 762.0 754.2 786.8 757.2C811.5 760.2 837.1 761.4 861.6 761.7C886.1 762.0 910.5 760.6 933.8 759.0C957.1 757.4 979.7 754.7 1001.4 752.2C1023.2 749.8 1044.0 746.8 1064.3 744.3C1084.7 741.8 1104.2 739.3 1123.5 737.2C1142.8 735.1 1161.5 733.3 1180.2 731.8C1198.9 730.4 1226.3 729.1 1235.5 728.5" stroke="#7fc4f1" stroke-width="1.26" opacity="0.31"/>
    <path d="M260.0 630.0C262.9 629.7 269.0 628.7 277.4 628.2C285.8 627.7 299.7 626.7 310.4 626.7C321.1 626.8 331.3 627.4 341.6 628.7C351.9 630.1 361.8 632.0 372.0 634.8C382.2 637.5 392.3 641.0 403.0 645.2C413.6 649.5 424.4 654.6 436.1 660.3C447.8 666.0 459.8 672.5 473.1 679.4C486.4 686.3 500.3 694.1 515.6 701.8C531.0 709.6 547.3 717.9 565.0 725.9C582.8 733.8 601.9 742.1 622.1 749.4C642.3 756.7 664.0 763.8 686.3 769.7C708.6 775.5 732.4 780.6 756.0 784.3C779.7 788.0 804.3 790.5 828.2 792.0C852.2 793.5 876.4 793.6 899.7 793.3C923.1 793.0 946.1 791.5 968.3 790.1C990.6 788.7 1012.2 786.6 1033.3 784.8C1054.3 782.9 1074.7 780.8 1094.8 779.1C1114.9 777.3 1134.3 775.6 1153.7 774.3C1173.0 772.9 1201.3 771.4 1210.8 770.8" stroke="#7bc7f9" stroke-width="1.16" opacity="0.28"/>
    <path d="M540.0 70.0C547.7 72.0 565.3 75.1 586.2 82.0C607.1 88.8 641.7 101.7 665.4 111.0C689.2 120.3 709.4 130.4 728.6 138.0C747.8 145.5 764.1 152.0 780.6 156.1C797.2 160.2 811.8 162.3 828.0 162.3C844.1 162.3 859.4 159.8 877.7 156.2C895.9 152.5 914.8 145.6 937.5 140.6C960.3 135.5 986.5 127.7 1014.0 125.8C1041.5 123.8 1073.9 124.3 1102.5 129.0C1131.1 133.6 1160.2 144.5 1185.8 153.8C1211.4 163.2 1244.4 180.0 1256.1 185.3" stroke="#92bbcb" stroke-width="1.67" opacity="0.45"/>
    <path d="M540.0 140.0C547.6 143.5 566.8 148.7 585.8 160.7C604.7 172.8 635.9 194.7 653.6 212.4C671.4 230.2 683.1 248.9 692.5 267.2C701.8 285.5 705.7 303.6 709.6 322.4C713.5 341.2 713.1 360.8 715.9 379.9C718.7 399.0 720.0 419.9 726.5 437.3C733.0 454.6 742.4 472.4 754.8 484.2C767.3 496.0 785.0 504.8 801.2 508.1C817.5 511.3 837.0 508.9 852.5 503.8C868.1 498.8 883.1 488.3 894.5 477.7C905.9 467.1 914.6 453.4 921.2 440.2C927.7 427.1 930.9 412.7 933.7 398.7C936.4 384.7 936.3 370.3 937.6 356.0C939.0 341.8 938.6 327.3 941.7 313.1C944.7 298.8 947.9 284.0 955.9 270.5C963.9 257.0 974.6 242.1 989.6 231.9C1004.7 221.8 1025.7 211.8 1046.2 209.4C1066.7 207.1 1092.1 211.1 1112.8 217.7C1133.5 224.4 1152.8 238.4 1170.3 249.5C1187.7 260.7 1209.7 278.8 1217.6 284.6" stroke="#b1ab8b" stroke-width="2.38" opacity="0.67"/>
    <path d="M540.0 210.0C546.3 215.3 564.5 223.3 577.5 241.9C590.6 260.4 609.7 293.6 618.5 321.1C627.2 348.6 625.6 379.2 630.2 406.9C634.8 434.5 636.5 462.7 646.1 486.8C655.6 511.0 669.4 534.1 687.6 551.8C705.7 569.6 730.5 584.6 755.0 593.4C779.6 602.3 809.1 605.4 835.0 604.9C860.9 604.4 887.6 597.5 910.4 590.4C933.3 583.2 953.9 572.0 972.1 562.2C990.3 552.5 1005.7 541.4 1019.9 531.9C1034.1 522.4 1046.0 513.1 1057.5 505.3C1068.9 497.5 1078.8 490.6 1088.8 484.9C1098.7 479.3 1107.7 474.8 1117.3 471.4C1126.8 468.0 1136.0 465.7 1145.9 464.3C1155.9 462.8 1166.0 462.5 1176.9 462.6C1187.9 462.7 1199.4 463.7 1211.7 465.0C1224.0 466.2 1244.2 469.3 1250.7 470.1" stroke="#9cb6b7" stroke-width="1.90" opacity="0.52"/>
    <path d="M540.0 280.0C543.3 286.5 554.5 298.5 559.8 319.1C565.0 339.7 568.7 376.6 571.5 403.4C574.4 430.3 572.2 456.4 577.0 480.1C581.7 503.8 588.5 525.5 600.0 545.5C611.5 565.6 627.2 584.5 645.9 600.5C664.7 616.5 688.1 631.1 712.5 641.5C736.9 651.9 765.5 659.1 792.4 662.8C819.4 666.5 848.2 665.7 874.3 663.6C900.4 661.4 925.7 655.4 948.9 649.9C972.0 644.5 993.2 637.0 1013.2 630.7C1033.2 624.5 1051.2 617.9 1068.8 612.4C1086.4 607.0 1102.5 602.0 1118.8 598.0C1135.0 594.0 1150.4 590.9 1166.0 588.4C1181.7 586.0 1204.9 584.2 1212.7 583.3" stroke="#a5b2a4" stroke-width="2.10" opacity="0.58"/>
    <path d="M540.0 350.0C540.5 356.4 542.8 370.3 543.3 388.6C543.7 406.9 541.1 437.7 542.5 459.7C543.9 481.7 545.5 501.5 551.6 520.6C557.6 539.8 566.5 557.7 578.8 574.7C591.0 591.7 606.7 608.3 625.0 622.7C643.3 637.2 665.3 650.9 688.7 661.4C712.0 671.9 738.9 680.4 765.2 685.6C791.4 690.9 819.8 692.8 846.1 692.9C872.5 693.0 898.9 689.6 923.3 686.2C947.6 682.8 970.6 677.2 992.3 672.3C1014.0 667.5 1034.0 661.9 1053.4 657.2C1072.8 652.5 1090.8 647.9 1108.6 644.2C1126.4 640.5 1143.4 637.4 1160.4 634.9C1177.4 632.4 1202.3 630.2 1210.7 629.3" stroke="#9db6b4" stroke-width="1.92" opacity="0.53"/>
    <path d="M540.0 420.0C539.9 425.7 538.2 438.3 539.2 454.1C540.3 469.9 541.0 495.7 546.3 514.8C551.5 533.9 559.4 551.7 570.6 568.8C581.9 585.8 596.4 602.4 613.7 617.2C630.9 632.0 651.8 646.2 674.3 657.5C696.8 668.7 722.8 678.3 748.6 684.6C774.5 690.9 802.8 694.2 829.3 695.3C855.7 696.4 882.7 694.0 907.6 691.2C932.4 688.5 956.2 683.2 978.5 678.7C1000.7 674.1 1021.4 668.4 1041.2 663.7C1061.1 659.0 1079.5 654.3 1097.7 650.4C1115.9 646.6 1133.1 643.2 1150.3 640.5C1167.6 637.8 1184.3 635.8 1201.2 634.3C1218.0 632.7 1243.2 631.8 1251.6 631.3" stroke="#89bfdc" stroke-width="1.49" opacity="0.39"/>
    <path d="M540.0 490.0C541.0 494.8 540.7 505.1 545.9 518.8C551.1 532.5 559.7 555.2 571.2 572.1C582.7 588.9 597.5 605.3 615.0 619.9C632.5 634.5 653.6 648.6 676.2 659.6C698.8 670.7 725.0 680.1 750.8 686.2C776.7 692.3 805.0 695.4 831.4 696.3C857.9 697.3 884.7 694.9 909.5 692.1C934.3 689.3 958.0 684.1 980.2 679.5C1002.4 675.0 1023.0 669.4 1042.9 664.7C1062.7 660.1 1081.1 655.4 1099.3 651.6C1117.5 647.8 1134.7 644.5 1152.0 641.9C1169.2 639.2 1185.9 637.2 1202.9 635.7C1219.8 634.2 1245.0 633.4 1253.4 632.9" stroke="#85c1e4" stroke-width="1.40" opacity="0.36"/>
    <path d="M540.0 560.0C542.5 563.9 545.4 572.0 554.9 583.2C564.4 594.5 580.3 613.6 596.9 627.4C613.5 641.2 633.1 654.8 654.5 666.0C676.0 677.2 700.6 687.4 725.5 694.6C750.4 701.8 777.8 706.7 804.0 709.3C830.2 711.9 857.4 711.4 882.7 710.1C908.0 708.8 932.7 704.9 955.9 701.4C979.0 697.8 1000.8 692.9 1021.7 688.8C1042.6 684.6 1062.1 680.1 1081.2 676.4C1100.3 672.7 1118.4 669.3 1136.4 666.5C1154.4 663.8 1171.7 661.5 1189.2 659.8C1206.6 658.1 1232.4 656.7 1241.1 656.1" stroke="#83c3e9" stroke-width="1.35" opacity="0.34"/>
    <path d="M540.0 630.0C543.6 633.0 549.2 639.1 561.5 647.7C573.8 656.3 594.3 671.2 613.6 681.8C632.9 692.3 654.5 702.7 677.2 710.9C699.9 719.2 724.9 726.4 749.8 731.3C774.7 736.3 801.1 739.3 826.5 740.7C851.8 742.2 877.5 741.4 901.8 740.1C926.2 738.8 949.8 735.8 972.4 733.1C994.9 730.3 1016.4 726.7 1037.2 723.5C1058.0 720.4 1077.7 717.1 1097.1 714.4C1116.6 711.6 1135.2 709.1 1153.7 707.1C1172.3 705.1 1199.3 703.0 1208.4 702.2" stroke="#7fc5f1" stroke-width="1.25" opacity="0.31"/>
    <path d="M820.0 70.0C825.4 70.2 835.7 71.6 852.6 71.4C869.5 71.3 897.1 70.1 921.6 69.0C946.1 67.9 972.2 64.8 999.6 64.6C1026.9 64.4 1057.2 64.6 1085.8 67.8C1114.5 71.0 1144.3 77.3 1171.5 83.9C1198.7 90.4 1236.1 103.4 1249.0 107.3" stroke="#81c3ec" stroke-width="1.31" opacity="0.33"/>
    <path d="M820.0 140.0C824.4 140.0 832.5 141.3 846.5 139.9C860.6 138.5 882.9 135.2 904.3 131.5C925.6 127.8 948.7 120.8 974.6 117.6C1000.6 114.4 1030.9 110.5 1059.8 112.0C1088.7 113.6 1120.5 119.8 1148.2 127.1C1175.9 134.4 1213.0 150.9 1226.0 155.7" stroke="#8dbdd4" stroke-width="1.58" opacity="0.42"/>
    <path d="M820.0 210.0C822.8 209.8 827.8 210.8 836.7 208.8C845.7 206.8 859.6 203.2 873.7 198.0C887.7 192.8 902.2 184.7 920.9 177.5C939.6 170.3 961.1 159.7 985.7 154.6C1010.4 149.4 1040.9 144.6 1068.8 146.5C1096.8 148.4 1127.6 157.0 1153.5 165.8C1179.5 174.7 1212.9 193.8 1224.7 199.4" stroke="#9ab7ba" stroke-width="1.86" opacity="0.51"/>
    <path d="M820.0 280.0C821.0 279.8 822.7 280.2 825.7 279.1C828.7 278.0 833.5 276.2 838.1 273.3C842.7 270.4 847.4 266.6 853.5 261.7C859.6 256.8 865.9 250.9 874.6 243.8C883.3 236.7 892.6 228.0 905.6 219.0C918.7 210.0 933.5 198.4 952.8 189.6C972.1 180.9 996.3 170.1 1021.6 166.7C1046.9 163.3 1078.2 164.1 1104.6 169.5C1131.1 174.9 1157.4 188.1 1180.3 198.9C1203.2 209.7 1231.7 228.4 1242.0 234.3" stroke="#a1b3ac" stroke-width="2.02" opacity="0.56"/>
    <path d="M820.0 350.0C820.0 349.9 820.1 349.8 820.1 349.6C820.2 349.4 820.3 349.1 820.3 348.8C820.4 348.5 820.5 348.1 820.6 347.8C820.6 347.4 820.7 347.1 820.8 346.7C820.9 346.3 821.0 345.9 821.1 345.4C821.2 345.0 821.3 344.5 821.4 344.0C821.6 343.5 821.7 343.0 821.8 342.4C822.0 341.9 822.1 341.3 822.3 340.6C822.5 340.0 822.7 339.3 822.9 338.5C823.1 337.8 823.3 337.0 823.6 336.1C823.9 335.2 824.2 334.3 824.6 333.3C824.9 332.2 825.3 331.1 825.8 329.9C826.3 328.7 826.8 327.3 827.4 325.8C828.1 324.3 828.8 322.7 829.6 320.8C830.5 318.9 831.5 316.9 832.7 314.6C833.9 312.2 835.3 309.7 837.0 306.6C838.8 303.6 840.7 300.4 843.3 296.4C845.8 292.5 848.6 288.2 852.5 283.1C856.4 278.0 860.6 272.3 866.6 265.5C872.5 258.8 879.0 251.2 888.3 242.6C897.6 234.0 907.9 223.8 922.4 214.0C936.9 204.3 954.2 191.7 975.5 184.0C996.8 176.2 1024.2 168.0 1050.3 167.5C1076.3 167.0 1106.8 173.2 1132.0 181.2C1157.2 189.2 1180.3 203.9 1201.5 215.3C1222.7 226.6 1249.6 243.7 1259.2 249.4" stroke="#a2b3aa" stroke-width="2.04" opacity="0.57"/>
    <path d="M820.0 420.0C821.0 419.8 823.3 420.1 826.1 418.6C828.9 417.0 833.7 414.2 836.8 410.8C839.9 407.4 842.6 402.8 844.7 398.1C846.7 393.4 848.1 387.9 849.2 382.4C850.3 377.0 850.7 371.2 851.2 365.5C851.7 359.9 851.7 354.1 852.0 348.4C852.3 342.7 852.5 337.1 853.2 331.3C853.8 325.5 854.6 319.9 856.1 313.8C857.6 307.7 859.4 301.7 862.4 294.9C865.4 288.2 868.8 281.3 874.1 273.3C879.4 265.4 885.3 256.9 894.2 247.5C903.2 238.1 913.2 227.2 927.6 217.0C942.1 206.8 959.5 194.0 980.8 186.3C1002.1 178.6 1029.7 170.9 1055.6 170.9C1081.5 171.0 1111.4 178.1 1136.0 186.5C1160.7 194.9 1192.3 215.5 1203.5 221.2" stroke="#acae96" stroke-width="2.26" opacity="0.64"/>
    <path d="M820.0 490.0C823.5 489.4 831.6 490.7 841.1 486.6C850.7 482.5 867.3 474.4 877.2 465.4C887.1 456.3 894.8 444.1 900.6 432.2C906.3 420.3 909.1 407.0 911.5 394.1C913.9 381.2 913.9 367.9 915.1 354.7C916.3 341.6 916.1 328.4 918.7 315.2C921.3 302.0 923.9 288.7 930.6 275.6C937.2 262.4 945.5 248.2 958.7 236.3C971.8 224.4 989.4 210.8 1009.6 204.2C1029.8 197.5 1056.7 193.7 1080.0 196.3C1103.2 198.9 1128.3 209.8 1149.2 219.8C1170.1 229.8 1187.7 244.6 1205.2 256.1C1222.7 267.6 1246.0 283.3 1254.1 288.7" stroke="#aead91" stroke-width="2.31" opacity="0.65"/>
    <path d="M820.0 560.0C825.9 559.4 839.0 561.2 855.1 556.5C871.2 551.8 898.8 542.0 916.5 531.7C934.2 521.5 949.0 507.7 961.2 495.2C973.5 482.6 982.5 469.1 990.0 456.5C997.5 443.9 1002.2 431.5 1006.0 419.5C1009.8 407.5 1011.4 396.0 1012.9 384.7C1014.5 373.3 1014.3 362.1 1015.3 351.3C1016.4 340.4 1016.7 329.3 1019.4 319.4C1022.1 309.5 1025.6 299.3 1031.6 291.8C1037.5 284.3 1046.0 277.6 1055.1 274.5C1064.2 271.4 1075.9 271.2 1086.3 273.4C1096.7 275.7 1107.7 281.7 1117.6 287.9C1127.4 294.2 1136.3 302.9 1145.5 310.7C1154.6 318.6 1162.9 327.2 1172.3 334.9C1181.6 342.6 1191.1 350.1 1201.7 357.0C1212.4 363.9 1230.4 373.0 1236.1 376.3" stroke="#b4aa86" stroke-width="2.44" opacity="0.69"/>
    <path d="M820.0 630.0C826.8 629.7 841.6 631.5 860.9 628.4C880.1 625.3 912.7 618.6 935.5 611.6C958.2 604.6 978.5 594.7 997.3 586.4C1016.0 578.1 1032.3 569.2 1047.9 561.7C1063.5 554.3 1077.3 547.4 1091.1 541.7C1104.9 536.1 1117.6 531.5 1130.6 527.9C1143.7 524.3 1156.3 521.9 1169.4 520.1C1182.6 518.4 1195.8 517.6 1209.5 517.4C1223.3 517.1 1245.1 518.2 1252.2 518.3" stroke="#90bccf" stroke-width="1.63" opacity="0.43"/>
  </g>
  <g>
    <circle cx="522.7" cy="604.4" r="3.6" fill="#c4a266" opacity="0.9"/>
    <circle cx="522.7" cy="604.4" r="8" fill="#c4a266" opacity="0.18"/>
    <circle cx="588.3" cy="634.0" r="3.6" fill="#c3a368" opacity="0.9"/>
    <circle cx="588.3" cy="634.0" r="8" fill="#c3a368" opacity="0.18"/>
    <circle cx="621.9" cy="634.5" r="3.6" fill="#c0a46d" opacity="0.9"/>
    <circle cx="621.9" cy="634.5" r="8" fill="#c0a46d" opacity="0.18"/>
    <circle cx="413.1" cy="498.8" r="3.6" fill="#bda674" opacity="0.9"/>
    <circle cx="413.1" cy="498.8" r="8" fill="#bda674" opacity="0.18"/>
    <circle cx="745.6" cy="673.9" r="3.6" fill="#bca676" opacity="0.9"/>
    <circle cx="745.6" cy="673.9" r="8" fill="#bca676" opacity="0.18"/>
    <circle cx="915.0" cy="674.3" r="3.6" fill="#baa778" opacity="0.9"/>
    <circle cx="915.0" cy="674.3" r="8" fill="#baa778" opacity="0.18"/>
    <circle cx="772.0" cy="662.9" r="3.6" fill="#b7a980" opacity="0.9"/>
    <circle cx="772.0" cy="662.9" r="8" fill="#b7a980" opacity="0.18"/>
    <circle cx="971.3" cy="403.4" r="3.6" fill="#b5aa84" opacity="0.9"/>
    <circle cx="971.3" cy="403.4" r="8" fill="#b5aa84" opacity="0.18"/>
    <circle cx="1013.1" cy="390.6" r="3.6" fill="#b4aa86" opacity="0.9"/>
    <circle cx="1013.1" cy="390.6" r="8" fill="#b4aa86" opacity="0.18"/>
    <circle cx="1086.3" cy="273.4" r="3.6" fill="#b4aa86" opacity="0.9"/>
    <circle cx="1086.3" cy="273.4" r="8" fill="#b4aa86" opacity="0.18"/>
    <circle cx="893.8" cy="403.6" r="3.6" fill="#b3ab88" opacity="0.9"/>
    <circle cx="893.8" cy="403.6" r="8" fill="#b3ab88" opacity="0.18"/>
    <circle cx="889.7" cy="343.2" r="3.6" fill="#b3ab88" opacity="0.9"/>
    <circle cx="889.7" cy="343.2" r="8" fill="#b3ab88" opacity="0.18"/>
  </g>
  <rect width="1200" height="750" fill="url(#cvig)"/>
  <rect x="0" y="540" width="1200" height="210" fill="url(#cscrim)"/>
  <text x="70" y="610" font-size="92" font-weight="700" fill="#f0ede8" letter-spacing="-2">Curdle</text>
  <text x="74" y="660" font-size="30" font-weight="400" fill="rgba(255,255,255,0.55)" letter-spacing="0.5">video &#8594; fluid dynamics</text>
  <g>
    <rect x="74" y="686" width="414" height="34" rx="17" fill="none" stroke="rgba(196,162,101,0.55)"/>
    <text x="92" y="709" font-size="17" font-weight="500" fill="#c4a265" letter-spacing="1.5">x402 &#183; BASE &#183; $0.05 / CALL &#183; MODAL GPU</text>
  </g>
</svg>
